<?xml version="1.0" ?><!DOCTYPE svg  PUBLIC '-//W3C//DTD SVG 1.1//EN'  'http://www.w3.org/Graphics/SVG/1.1/DTD/svg11.dtd'><svg enable-background="new 0 0 100 100" height="100px" version="1.1" viewBox="0 0 100 100" width="100px" xml:space="preserve" xmlns="http://www.w3.org/2000/svg" xmlns:xlink="http://www.w3.org/1999/xlink"><g id="color_x5F_fill"><path d="M93.01,16.583c0.228-2.926,0.181-7.012,0.181-9.986c0,0-14.545-0.062-17.445-0.18   c-5.855-0.24-11.793,0.191-17.619,0.18c-4.137-0.008-8.21,0.117-12.393,0C43.09,6.522,6.863,6.96,6.863,6.96   C6.789,9.55,7.128,36.524,6.88,42.839c-0.273,6.955,0.29,33.307,0.181,39.309c-0.062,3.432,0.347,6.086-0.081,9.717l0.081,1.59   c13.382,0,27.258,0.277,40.916,0.182c-0.058-5.368,0.204-10.888-0.028-17.967c-0.048-1.454-0.097-16.768-0.266-17.574   c0,0-6.469,0.045-9.419,0.062c0,0-0.198-5.652-0.198-7.562c0-1.878,0-3.754,0-5.632c0,0,7.524-0.408,9.639-0.593   c0,0,0.295-7.168,0.589-9.491c0.336-2.653,0.409-5.333,1.968-7.682c2.854-4.295,5.69-8.081,10.938-9.224   c1.984-0.432,15.083-3.006,15.57-0.89l-0.294,12.748c-3.56,0-7.822-0.363-11.454,2.337c-2.023,1.505-2.578,2.759-2.784,5.231   c-0.12,1.44-0.149,7.266-0.149,7.266c1.918,0.275,4.757,0.154,6.818,0c2.33-0.173,8.308,0.445,8.308,0.445   c0,3.855-0.154,12.76-0.14,13.139c-2.381-0.039-4.557,0.031-7.324-0.089c-0.449-0.021-7.655,0.087-7.634,0.217   c0.523,3.206-0.229,6.61-0.184,9.851c0.026,1.889,0.582,18.976,0.327,25.276c3.186-0.027,6.382-0.05,9.633-0.05   c3.835,0,17.338,0.002,21.158,0C93.05,93.454,92.414,24.257,93.01,16.583z" fill="#3A5897"/></g><g id="offset_x5F_print_x5F_outline"/></svg>